<svg xmlns="http://www.w3.org/2000/svg" width="540" height="200" viewBox="0 0 540 200">
<rect width="540" height="200" fill="#0d1117"></rect>
<rect x="1" y="1" width="538" height="198" fill="#161b22" stroke="#30363d" rx="6"></rect>
<text x="20" y="26" fill="#8b949e" font-size="13" font-family="Menlo,monospace">monte carlo convergence · O(1/√N)</text>
<line x1="20" x2="520" y1="110.00000000000001" y2="110.00000000000001" stroke="#d29922" stroke-dasharray="4 4"></line>
<text x="512" y="104.00000000000001" fill="#d29922" font-size="12" font-family="Menlo,monospace" text-anchor="end">analytic price</text>
<path d="M20.0,140.0 L25.0,138.5 L30.0,123.6 L35.0,120.7 L40.0,123.8 L45.0,114.8 L50.0,94.1 L55.0,82.6 L60.0,93.9 L65.0,116.4 L70.0,128.1 L75.0,122.9 L80.0,113.6 L85.0,111.3 L90.0,111.4 L95.0,105.0 L100.0,95.4 L105.0,95.7 L110.0,109.3 L115.0,123.6 L120.0,125.0 L125.0,115.4 L130.0,107.2 L135.0,106.4 L140.0,107.0 L145.0,103.2 L150.0,100.0 L155.0,105.6 L160.0,117.8 L165.0,124.5 L170.0,119.0 L175.0,108.0 L180.0,102.8 L185.0,104.7 L190.0,106.7 L195.0,105.3 L200.0,105.9 L205.0,112.9 L210.0,121.1 L215.0,120.8 L220.0,111.4 L225.0,102.2 L230.0,101.4 L235.0,106.3 L240.0,109.3 L245.0,109.0 L250.0,110.8 L255.0,116.5 L260.0,119.7 L265.0,114.5 L270.0,104.6 L275.0,99.8 L280.0,103.6 L285.0,110.2 L290.0,112.6 L295.0,111.9 L300.0,113.2 L305.0,116.4 L310.0,115.5 L315.0,108.2 L320.0,100.8 L325.0,101.2 L330.0,108.3 L335.0,114.4 L340.0,114.7 L345.0,112.6 L350.0,112.8 L355.0,113.7 L360.0,110.5 L365.0,103.9 L370.0,100.8 L375.0,105.5 L380.0,113.6 L385.0,117.1 L390.0,114.5 L395.0,111.1 L400.0,110.6 L405.0,110.4 L410.0,107.0 L415.0,102.8 L420.0,103.9 L425.0,111.0 L430.0,117.3 L435.0,117.0 L440.0,111.8 L445.0,108.3 L450.0,108.3 L455.0,108.2 L460.0,105.8 L465.0,104.6 L470.0,108.6 L475.0,115.5 L480.0,118.2 L485.0,114.1 L490.0,108.0 L495.0,105.7 L500.0,107.2 L505.0,108.0 L510.0,107.0 L515.0,107.9 L520.0,112.8 " stroke="#2f81f7" stroke-width="1.8" fill="none"></path>
</svg>